<svg xmlns="http://www.w3.org/2000/svg" width="1290" height="2796" viewBox="0 0 1290 2796">
    
    <defs>
      <pattern id="grain" width="8" height="8" patternUnits="userSpaceOnUse">
        <rect width="8" height="8" fill="#D9D5BF"/>
        <circle cx="1" cy="1" r="0.6" fill="#B5B19D" opacity="0.6"/>
        <circle cx="5" cy="6" r="0.5" fill="#F0ECD9" opacity="0.85"/>
      </pattern>
      <filter id="shadow" x="-20%" y="-20%" width="140%" height="140%">
        <feDropShadow dx="0" dy="18" stdDeviation="0" flood-color="#484636" flood-opacity="0.38"/>
      </filter>
    </defs>
    <rect width="1290" height="2796" fill="url(#grain)"/>
    <rect x="44" y="44" width="1202" height="2708" fill="none" stroke="#20251B" stroke-width="8"/>
    <g fill="#20251B">
      <rect x="70" y="70" width="26" height="26"/><rect x="1194" y="70" width="26" height="26"/>
      <rect x="70" y="2700" width="26" height="26"/><rect x="1194" y="2700" width="26" height="26"/>
    </g>
    <text x="112" y="172" text-anchor="start" fill="#B43A2B" font-family="Menlo, monospace" font-size="22" font-weight="900" letter-spacing="2">LIVE TEXT</text>
    <text x="112" y="286" text-anchor="start" fill="#20251B" font-family="Menlo, monospace" font-size="66" font-weight="900" letter-spacing="0">边说边记</text>
<text x="112" y="374" text-anchor="start" fill="#20251B" font-family="Menlo, monospace" font-size="66" font-weight="900" letter-spacing="0">声音即时成文</text>
    <text x="112" y="468" text-anchor="start" fill="#59604A" font-family="Menlo, monospace" font-size="29" font-weight="700" letter-spacing="0">实时语音识别持续滚动，</text>
<text x="112" y="510" text-anchor="start" fill="#59604A" font-family="Menlo, monospace" font-size="29" font-weight="700" letter-spacing="0">录音过程中的每个灵感都看得见。</text>
    <g filter="url(#shadow)">
    <g>
      <rect x="96" y="592" width="1098" height="1780" rx="26" fill="#C8C4AF" stroke="#20251B" stroke-width="12"/>
      <rect x="118" y="614" width="1054" height="1736" rx="14" fill="#E9E5D2" stroke="#3D4331" stroke-width="5"/>
      <rect x="148" y="652" width="994" height="104" fill="#F5F0DC" stroke="#20251B" stroke-width="5"/>
      <text x="192" y="720" text-anchor="start" fill="#20251B" font-family="Arial" font-size="37" font-weight="700" letter-spacing="0">☷</text>
      <text x="645" y="718" text-anchor="middle" fill="#20251B" font-family="Menlo, monospace" font-size="32" font-weight="900" letter-spacing="2">RETRO REC</text>
      <text x="1094" y="720" text-anchor="end" fill="#20251B" font-family="Arial" font-size="34" font-weight="700" letter-spacing="0">⚙</text>
      <rect x="148" y="780" width="994" height="84" fill="#F5F0DC" stroke="#20251B" stroke-width="5"/>
      <rect x="164" y="794" width="306" height="56" fill="none" stroke="#3D4331" stroke-width="2"/>
      <rect x="490" y="794" width="306" height="56" fill="none" stroke="#3D4331" stroke-width="2"/>
      <rect x="816" y="794" width="310" height="56" fill="none" stroke="#3D4331" stroke-width="2"/>
      <text x="177" y="815" text-anchor="start" fill="#59604A" font-family="Menlo, monospace" font-size="12" font-weight="900" letter-spacing="0">INPUT</text>
      <text x="177" y="839" text-anchor="start" fill="#20251B" font-family="Menlo, monospace" font-size="17" font-weight="900" letter-spacing="0">iPhone Mic  ▾</text>
      <text x="503" y="815" text-anchor="start" fill="#59604A" font-family="Menlo, monospace" font-size="12" font-weight="900" letter-spacing="0">NR</text>
      <text x="503" y="839" text-anchor="start" fill="#20251B" font-family="Menlo, monospace" font-size="17" font-weight="900" letter-spacing="0">RNNoise  ▾</text>
      <text x="829" y="815" text-anchor="start" fill="#59604A" font-family="Menlo, monospace" font-size="12" font-weight="900" letter-spacing="0">AEC</text>
      <text x="829" y="839" text-anchor="start" fill="#20251B" font-family="Menlo, monospace" font-size="17" font-weight="900" letter-spacing="0">Enabled  ▾</text>
      <rect x="148" y="890" width="994" height="1058" fill="#AEB77B" stroke="#20251B" stroke-width="8"/>
      <text x="182" y="940" text-anchor="start" fill="#B43A2B" font-family="Menlo, monospace" font-size="21" font-weight="900" letter-spacing="1">REC</text>
      <text x="1105" y="940" text-anchor="end" fill="#20251B" font-family="Menlo, monospace" font-size="18" font-weight="900" letter-spacing="0">48 kHz / 24-bit</text>
      
    <text x="182" y="1000" text-anchor="start" fill="#59604A" font-family="Menlo, monospace" font-size="21" font-weight="900" letter-spacing="2">LIVE TEXT</text>
    <rect x="182" y="1040" width="926" height="558" fill="#C9CF93" stroke="#3D4331" stroke-width="4"/>
    <text x="220" y="1116" text-anchor="start" fill="#20251B" font-family="Menlo, monospace" font-size="30" font-weight="700" letter-spacing="0">今天的会议先从用户反馈开始。</text>
<text x="220" y="1184" text-anchor="start" fill="#20251B" font-family="Menlo, monospace" font-size="30" font-weight="700" letter-spacing="0">第一，录音时可以查看实时文字；</text>
<text x="220" y="1252" text-anchor="start" fill="#20251B" font-family="Menlo, monospace" font-size="30" font-weight="700" letter-spacing="0">第二，重要内容在当下打上标签；</text>
<text x="220" y="1320" text-anchor="start" fill="#20251B" font-family="Menlo, monospace" font-size="30" font-weight="700" letter-spacing="0">第三，录完就能直接回放或整理。</text>
    <rect x="220" y="1530" width="630" height="8" fill="#20251B" opacity="0.42"/>
    <rect x="220" y="1530" width="408" height="8" fill="#B43A2B"/>
    <text x="645" y="1728" text-anchor="middle" fill="#20251B" font-family="Menlo, monospace" font-size="64" font-weight="900" letter-spacing="0">00:14:08</text>
    <rect x="258" y="1838.5" width="7" height="39" fill="#20251B"/><rect x="271" y="1820" width="7" height="76" fill="#20251B"/><rect x="284" y="1801.5" width="7" height="113" fill="#20251B"/><rect x="297" y="1840.5" width="7" height="35" fill="#20251B"/><rect x="310" y="1822" width="7" height="72" fill="#20251B"/><rect x="323" y="1803.5" width="7" height="109" fill="#20251B"/><rect x="336" y="1842.5" width="7" height="31" fill="#20251B"/><rect x="349" y="1824" width="7" height="68" fill="#20251B"/><rect x="362" y="1805.5" width="7" height="105" fill="#20251B"/><rect x="375" y="1844.5" width="7" height="27" fill="#20251B"/><rect x="388" y="1826" width="7" height="64" fill="#20251B"/><rect x="401" y="1807.5" width="7" height="101" fill="#20251B"/><rect x="414" y="1846.5" width="7" height="23" fill="#20251B"/><rect x="427" y="1828" width="7" height="60" fill="#20251B"/><rect x="440" y="1809.5" width="7" height="97" fill="#20251B"/><rect x="453" y="1791" width="7" height="134" fill="#20251B"/><rect x="466" y="1830" width="7" height="56" fill="#20251B"/><rect x="479" y="1811.5" width="7" height="93" fill="#20251B"/><rect x="492" y="1793" width="7" height="130" fill="#20251B"/><rect x="505" y="1832" width="7" height="52" fill="#20251B"/><rect x="518" y="1813.5" width="7" height="89" fill="#20251B"/><rect x="531" y="1795" width="7" height="126" fill="#20251B"/><rect x="544" y="1834" width="7" height="48" fill="#20251B"/><rect x="557" y="1815.5" width="7" height="85" fill="#20251B"/><rect x="570" y="1797" width="7" height="122" fill="#20251B"/><rect x="583" y="1836" width="7" height="44" fill="#20251B"/><rect x="596" y="1817.5" width="7" height="81" fill="#20251B"/><rect x="609" y="1799" width="7" height="118" fill="#20251B"/><rect x="622" y="1838" width="7" height="40" fill="#20251B"/><rect x="635" y="1819.5" width="7" height="77" fill="#20251B"/><rect x="648" y="1801" width="7" height="114" fill="#20251B"/><rect x="661" y="1840" width="7" height="36" fill="#20251B"/><rect x="674" y="1821.5" width="7" height="73" fill="#20251B"/><rect x="687" y="1803" width="7" height="110" fill="#20251B"/><rect x="700" y="1842" width="7" height="32" fill="#20251B"/><rect x="713" y="1823.5" width="7" height="69" fill="#20251B"/><rect x="726" y="1805" width="7" height="106" fill="#20251B"/><rect x="739" y="1844" width="7" height="28" fill="#20251B"/><rect x="752" y="1825.5" width="7" height="65" fill="#20251B"/><rect x="765" y="1807" width="7" height="102" fill="#20251B"/><rect x="778" y="1846" width="7" height="24" fill="#20251B"/><rect x="791" y="1827.5" width="7" height="61" fill="#20251B"/><rect x="804" y="1809" width="7" height="98" fill="#B43A2B"/><rect x="817" y="1848" width="7" height="20" fill="#20251B"/><rect x="830" y="1829.5" width="7" height="57" fill="#20251B"/><rect x="843" y="1811" width="7" height="94" fill="#20251B"/><rect x="856" y="1792.5" width="7" height="131" fill="#20251B"/><rect x="869" y="1831.5" width="7" height="53" fill="#20251B"/><rect x="882" y="1813" width="7" height="90" fill="#20251B"/><rect x="895" y="1794.5" width="7" height="127" fill="#20251B"/><rect x="908" y="1833.5" width="7" height="49" fill="#20251B"/><rect x="921" y="1815" width="7" height="86" fill="#20251B"/><rect x="934" y="1796.5" width="7" height="123" fill="#20251B"/><rect x="947" y="1835.5" width="7" height="45" fill="#20251B"/><rect x="960" y="1817" width="7" height="82" fill="#20251B"/><rect x="973" y="1798.5" width="7" height="119" fill="#20251B"/><rect x="986" y="1837.5" width="7" height="41" fill="#20251B"/>
    
    <rect x="148" y="1980" width="994" height="320" fill="#F5F0DC" stroke="#20251B" stroke-width="5"/>
    <circle cx="645" cy="2128" r="84" fill="#B43A2B" stroke="#20251B" stroke-width="12"/>
    <circle cx="645" cy="2128" r="48" fill="#D84F3C"/>
    <text x="645" y="2266" text-anchor="middle" fill="#20251B" font-family="Menlo, monospace" font-size="24" font-weight="900" letter-spacing="1">PAUSE  /  STOP</text>
  
  
    </g></g>
    <text x="645" y="2638" text-anchor="middle" fill="#59604A" font-family="Menlo, monospace" font-size="21" font-weight="900" letter-spacing="1">SPEAK. SEE. SAVE.</text>
  </svg>